<?xml version="1.0" standalone="no"?>
<!DOCTYPE svg PUBLIC "-//W3C//DTD SVG 20010904//EN"
 "http://www.w3.org/TR/2001/REC-SVG-20010904/DTD/svg10.dtd">
<svg version="1.0" xmlns="http://www.w3.org/2000/svg"
 width="200.000000pt" height="200.000000pt" viewBox="0 0 200.000000 200.000000"
 preserveAspectRatio="xMidYMid meet">
<metadata>
Created by potrace 1.14, written by Peter Selinger 2001-2017
</metadata>
<g transform="translate(0.000000,200.000000) scale(0.100000,-0.100000)"
fill="#000000" stroke="none">
<path d="M917 1550 c-208 -53 -337 -265 -337 -554 0 -193 45 -329 139 -429
118 -125 325 -162 444 -80 20 14 37 28 37 32 0 3 9 17 19 30 l19 25 18 -57
c17 -54 19 -57 51 -57 l33 0 0 233 c0 248 5 277 51 277 14 0 19 7 19 30 l0 30
-221 0 -220 0 3 -27 c3 -28 4 -28 92 -33 81 -5 90 -8 112 -33 23 -27 24 -35
24 -164 0 -129 -1 -139 -26 -181 -60 -101 -216 -111 -312 -19 -76 72 -111 186
-119 382 -11 278 49 455 173 515 65 32 174 26 232 -12 52 -35 88 -97 110 -187
16 -70 17 -71 49 -71 l33 0 0 170 0 170 -35 0 c-21 0 -35 -5 -35 -12 0 -7 -4
-19 -9 -27 -8 -12 -22 -9 -82 19 -59 27 -88 34 -149 36 -41 2 -92 -1 -113 -6z"/>
</g>
</svg>
