<svg width="16" height="16" viewBox="0 0 16 16" fill="none" xmlns="http://www.w3.org/2000/svg">
<g clip-path="url(#clip0_1773_519)">
<path d="M8.00004 14.6667C11.6819 14.6667 14.6667 11.6819 14.6667 8.00004C14.6667 4.31814 11.6819 1.33337 8.00004 1.33337C4.31814 1.33337 1.33337 4.31814 1.33337 8.00004C1.33337 11.6819 4.31814 14.6667 8.00004 14.6667Z" stroke="#141414"/>
<path d="M8.00004 14.6667C9.4728 14.6667 10.6667 11.6819 10.6667 8.00004C10.6667 4.31814 9.4728 1.33337 8.00004 1.33337C6.52728 1.33337 5.33337 4.31814 5.33337 8.00004C5.33337 11.6819 6.52728 14.6667 8.00004 14.6667Z" stroke="#141414"/>
<path d="M1.33337 8H14.6667" stroke="#141414"/>
<path d="M13.3333 12C11.6468 11.2913 9.82861 10.9504 7.99996 11C6.17131 10.9504 4.3531 11.2913 2.66663 12" stroke="#141414"/>
<path d="M2.66663 4C4.3531 4.70868 6.17131 5.04959 7.99996 5C9.82861 5.04959 11.6468 4.70868 13.3333 4" stroke="#141414"/>
</g>
<defs>
<clipPath id="clip0_1773_519">
<rect width="16" height="16" fill="white"/>
</clipPath>
</defs>
</svg>
