<svg width="27" height="27" viewBox="0 0 27 27" fill="none" xmlns="http://www.w3.org/2000/svg">
  <g clip-path="url(#clip0_1867_38919)">
  <path d="M21.9804 9.6775C21.854 9.77554 19.6231 11.0326 19.6231 13.8278C19.6231 17.0609 22.4619 18.2047 22.5468 18.2331C22.5337 18.3028 22.0958 19.7995 21.0501 21.3246C20.1176 22.6666 19.1438 24.0065 17.6623 24.0065C16.1808 24.0065 15.7996 23.1459 14.0893 23.1459C12.4226 23.1459 11.8301 24.0348 10.4749 24.0348C9.11982 24.0348 8.17429 22.793 7.08714 21.2679C5.82788 19.4771 4.81046 16.6949 4.81046 14.0544C4.81046 9.81912 7.56427 7.57293 10.2745 7.57293C11.7146 7.57293 12.915 8.51846 13.8192 8.51846C14.6797 8.51846 16.0218 7.51628 17.6601 7.51628C18.281 7.51628 20.512 7.57293 21.9804 9.6775ZM16.8823 5.72326C17.5599 4.91933 18.0392 3.80387 18.0392 2.6884C18.0392 2.53371 18.0261 2.37685 17.9978 2.25049C16.8954 2.29188 15.5839 2.98469 14.793 3.9019C14.1721 4.60779 13.5926 5.72326 13.5926 6.85397C13.5926 7.02391 13.6209 7.19384 13.634 7.24831C13.7037 7.26138 13.817 7.27663 13.9303 7.27663C14.9194 7.27663 16.1634 6.61432 16.8823 5.72326Z" fill="#FEFEFE"/>
  </g>
  <defs>
  <clipPath id="clip0_1867_38919">
  <rect width="17.7342" height="21.7865" fill="white" transform="translate(4.81046 2.25049)"/>
  </clipPath>
  </defs>
</svg>
