<?xml version="1.0" encoding="utf-8"?>
<!-- Generator: Adobe Illustrator 27.0.0, SVG Export Plug-In . SVG Version: 6.00 Build 0)  -->
<svg version="1.1" id="Layer_1" xmlns="http://www.w3.org/2000/svg" xmlns:xlink="http://www.w3.org/1999/xlink" x="0px" y="0px"
	 viewBox="0 0 480.9 509.1" style="enable-background:new 0 0 480.9 509.1;" xml:space="preserve">
<style type="text/css">
	.st0{fill:#FFC300;}
	.st1{fill:#04724D;}
	/* .st2{fill:none;stroke:#17FF93;stroke-width:0.5;stroke-miterlimit:10;}
	.st3{fill:#17FF93;} */
</style>
<path class="st1" d="M321.2,249.6c58-47.7,113.7-93.6,148.4-145.3c-6.8-9.4-16.2-16.9-27-21.5L254.3,2.9C250.1,1,245.6,0,240.9,0
	c-4.6,0-9.2,1-13.3,2.9L39.2,82.8c-22,9.3-38.4,31-39.2,56.3c1.2,83.2,29.5,222.6,137.9,314.6C170,374,246.8,310.9,321.2,249.6z"/>
<path class="st0" d="M267.3,503.2c172.3-82.5,213.1-264,213.6-364.1c0.1-12.9-4.2-24.9-11.3-34.8C435,156,379.2,201.9,321.2,249.6
	C246.8,310.9,170,374,137.9,453.7c22.1,18.7,47.4,35.5,76.6,49.5C231.2,511.1,250.6,511.1,267.3,503.2z"/>
</svg>
