<svg width="289" height="56" viewBox="0 0 289 56" fill="none" xmlns="http://www.w3.org/2000/svg">
<path fill-rule="evenodd" clip-rule="evenodd" d="M38.1661 36.0913C38.1661 30.8962 38.9547 29.5575 42.0232 29.3211V26.49H19.9969V29.3211C20.9747 29.3624 21.892 29.3832 22.7478 29.4026C28.4319 29.5314 31.4059 29.5988 31.4059 35.2314L31.4294 45.5744C31.0629 46.8793 30.5003 48.1209 29.7608 49.2565C28.1453 51.6207 25.4695 52.72 21.8546 52.72C13.2898 52.72 8.22193 43.6713 8.22193 28.0888C8.22193 12.5062 12.8911 3.2359 22.2474 3.2359C29.4832 3.2359 33.8394 8.01734 34.9469 18.0885H38.172V1.0018H35.1036C34.7108 2.96994 34.3947 3.51959 33.6858 3.51959C33.3124 3.51959 32.7407 3.20801 31.9376 2.77027C30.0415 1.73677 26.8551 0 21.9403 0C8.80957 0 0.15625 11.7822 0.15625 28.3843C0.15625 45.143 8.4257 56.0002 22.0112 56.0002H22.0378C30.0503 56.0002 32.6078 50.6514 33.1513 48.9462L35.074 55.2939H38.1424L38.1661 36.0913ZM246.06 48.156C248.05 51.4244 249.164 52.3818 250.599 52.7808V55.2483H241.916L226.148 27.6767H220.971V45.9248C220.971 51.4244 222.087 52.5385 226.706 52.7808V55.2483H208.865V52.7808C213.564 52.6182 214.361 51.8942 214.361 46.3238V9.97534C214.361 4.39897 213.564 3.68087 208.865 3.52129V1.05078H228.062C238.257 1.05078 243.673 5.75244 243.673 13.7225C243.673 20.3361 239.849 25.1176 233.08 26.87L246.06 48.156ZM220.971 24.8102H225.67C232.758 24.8102 236.343 20.8267 236.343 13.9707C236.343 7.27729 233.316 3.92319 227.188 3.92319H220.986L220.971 24.8102ZM288.514 1.05615H275.535L275.546 3.53257C279.368 3.85173 280.484 4.49004 280.484 6.40203C280.484 7.43633 280.165 8.71296 279.208 10.6249L269.728 29.5911L260.171 10.226C259.137 8.07465 258.818 7.04921 258.818 6.16266C258.818 4.41912 260.094 3.85173 263.839 3.53257V1.05911H247.51V3.52962C249.105 3.92856 249.979 4.80329 251.972 8.71L264.953 33.9707V45.6879C264.953 51.6632 263.6 52.5379 258.981 52.7802V55.2478H277.457V52.7802C272.826 52.5409 271.55 51.6662 271.55 45.6879V33.7343L284.135 8.71296C286.046 4.80625 287.002 3.93152 288.514 3.53257V1.05615ZM90.298 55.2481V52.7776C94.9968 52.6181 95.7943 51.8911 95.7943 46.3236V9.97516C95.7943 4.39878 94.9968 3.68068 90.298 3.5211V1.0506H108.314V3.53293C103.136 3.69251 102.407 5.04597 102.407 10.8647V45.5286C102.407 50.7888 103.293 52.3846 108.142 52.3846H113.875C119.782 52.3846 121.362 50.2303 124.309 36.2849H127.576L125.508 55.2511L90.298 55.2481ZM130.274 52.7776V55.2481L165.469 55.2511L167.536 36.2849H164.27C161.322 50.2303 159.73 52.3846 153.839 52.3846H148.103C143.254 52.3846 142.368 50.7888 142.368 45.5286V10.8647C142.368 5.04597 143.097 3.69251 148.274 3.53293V1.0506H130.274V3.5211C134.972 3.68068 135.77 4.39878 135.77 9.97516V46.3236C135.77 51.8911 134.972 52.6181 130.274 52.7776ZM81.7279 44.1672L67.6255 1.05145H53.7654V3.53083C59.0815 3.53083 60.0886 7.50256 59.2616 9.98489L47.8675 44.2647C45.6377 51.1177 44.6837 52.4712 42.1349 52.7903V55.246H56.9491V52.7755C52.4895 52.616 50.747 51.6614 50.747 49.0313C50.747 47.9941 51.066 46.4811 51.633 44.6459L54.102 37.2373H71.7042L74.0138 44.3297C74.7285 46.3983 75.0475 47.9143 75.0475 49.0313C75.0475 51.6614 73.2961 52.616 69.1554 52.7755V55.246H87.7203V52.7755C84.9914 52.4534 83.9577 50.9404 81.7279 44.1672ZM55.1151 33.8862L62.8412 10.3779L70.5671 33.8862H55.1151ZM203.529 55.2434L204.415 39.0669L201.151 39.0699C199.955 49.5784 198.284 52.3681 191.91 52.3681H186.816C182.037 52.3681 181.001 51.251 181.001 46.31V29.0164H187.451C193.266 29.0164 194.063 29.9739 194.539 37.2259H197.646V17.9405H194.539C194.063 25.1925 193.266 26.147 187.451 26.147H181.001V3.91535H189.999C197.566 3.91535 199.161 5.90713 200.274 14.7519H203.541L202.903 1.0459H168.895V3.51641C173.593 3.67599 174.391 4.39409 174.391 9.97047V46.3189C174.391 51.8864 173.593 52.6134 168.895 52.7729V55.2434H203.529Z" fill="#111111"/>
</svg>
