<svg width="207" height="41" viewBox="0 0 207 41" fill="none" xmlns="http://www.w3.org/2000/svg">
<path fill-rule="evenodd" clip-rule="evenodd" d="M27.6 26.8004C27.6 23.1004 28.2001 22.1004 30.4001 22.0004V20.0004H14.6V22.0004C15.3 22.0004 16 22.0004 16.6 22.1004C20.7 22.2004 22.8001 22.2004 22.8001 26.3004V33.7004C22.5001 34.6004 22.1 35.5004 21.6 36.3004C20.4 38.0004 18.5001 38.8004 15.9001 38.8004C9.80005 38.8004 6.10005 32.3004 6.10005 21.2004C6.10005 10.1004 9.40005 3.40039 16.2 3.40039C21.4 3.40039 24.5001 6.80039 25.3001 14.0004H27.6V1.60039H25.4001C25.1001 3.00039 24.9001 3.40039 24.4001 3.40039C24.1001 3.40039 23.7 3.20039 23.1 2.90039C21.7 2.20039 19.5001 0.900391 15.9001 0.900391C6.50005 0.900391 0.300049 9.30039 0.300049 21.2004C0.300049 33.2004 6.20005 41.0004 16 41.0004C21.7001 41.0004 23.6 37.2004 24 35.9004L25.4001 40.4004H27.6V26.8004ZM176.6 35.4004C178 37.7004 178.8 38.4004 179.9 38.7004V40.5004H173.7L162.4 20.8004H158.7V33.9004C158.7 37.8004 159.5 38.6004 162.8 38.8004V40.6004H150V38.8004C153.4 38.7004 153.9 38.2004 153.9 34.2004V8.20039C153.9 4.20039 153.3 3.70039 150 3.60039V1.80039H163.8C171.1 1.80039 175 5.20039 175 10.9004C175 15.6004 172.3 19.1004 167.4 20.3004L176.6 35.4004ZM158.6 18.7004H162C167.1 18.7004 169.6 15.8004 169.6 10.9004C169.6 6.10039 167.4 3.70039 163 3.70039H158.6V18.7004ZM207 1.70039H197.7V3.50039C200.4 3.70039 201.2 4.20039 201.2 5.60039C201.2 6.30039 201 7.30039 200.3 8.60039L193.5 22.2004L186.7 8.30039C186 6.80039 185.7 6.00039 185.7 5.40039C185.7 4.20039 186.6 3.70039 189.3 3.50039V1.70039H177.6V3.50039C178.7 3.80039 179.4 4.40039 180.8 7.20039L190.1 25.3004V33.7004C190.1 38.0004 189.1 38.6004 185.8 38.8004V40.6004H199V38.8004C195.7 38.6004 194.8 38.0004 194.8 33.7004V25.1004L203.8 7.20039C205.2 4.40039 205.9 3.80039 206.9 3.50039V1.70039H207ZM65 40.5004V38.7004C68.4 38.6004 68.9 38.1004 68.9 34.1004V8.10039C68.9 4.10039 68.3 3.60039 65 3.50039V1.70039H77.9V3.50039C74.2 3.60039 73.7 4.60039 73.7 8.80039V33.6004C73.7 37.4004 74.3 38.5004 77.8 38.5004H81.9C86.1 38.5004 87.3 37.0004 89.4 27.0004H91.7L90.2 40.6004L65 40.5004ZM93.6001 38.7004V40.5004H118.8L120.3 26.9004H118C115.9 36.9004 114.7 38.4004 110.5 38.4004H106.4C102.9 38.4004 102.3 37.3004 102.3 33.5004V8.70039C102.3 4.50039 102.8 3.60039 106.5 3.40039V1.60039H93.6001V3.40039C97.0001 3.50039 97.5 4.00039 97.5 8.00039V34.0004C97.5 38.1004 97.0001 38.6004 93.6001 38.7004ZM58.8001 32.6004L48.7 1.70039H38.8001V3.50039C42.6001 3.50039 43.3 6.30039 42.7 8.10039L34.5 32.7004C32.9001 37.6004 32.2001 38.6004 30.4001 38.8004V40.6004H41V38.8004C37.8 38.7004 36.6 38.0004 36.6 36.1004C36.6 35.4004 36.8 34.3004 37.2 33.0004L39 27.7004H51.6L53.3001 32.8004C53.8001 34.3004 54 35.4004 54 36.2004C54 38.1004 52.7001 38.8004 49.8001 38.9004V40.7004H63.1V38.9004C61.2 38.5004 60.4001 37.4004 58.8001 32.6004ZM39.7 25.2004L45.2 8.40039L50.7 25.2004H39.7ZM146.1 40.5004L146.7 28.9004H144.4C143.5 36.4004 142.3 38.4004 137.8 38.4004H134.1C130.7 38.4004 129.9 37.6004 129.9 34.1004V21.7004H134.5C138.7 21.7004 139.2 22.4004 139.6 27.6004H141.8V13.8004H139.6C139.3 19.0004 138.7 19.7004 134.5 19.7004H130V3.70039H136.4C141.8 3.70039 143 5.10039 143.8 11.5004H146.1L145.6 1.70039H121.2V3.50039C124.6 3.60039 125.1 4.10039 125.1 8.10039V34.1004C125.1 38.1004 124.5 38.6004 121.2 38.7004V40.5004H146.1Z" fill="#141414"/>
</svg>
