<svg width="156" height="51" viewBox="0 0 156 51" fill="none" xmlns="http://www.w3.org/2000/svg">
<mask id="mask0_1654_6637" style="mask-type:luminance" maskUnits="userSpaceOnUse" x="0" y="0" width="156" height="51">
<path d="M156 0.900391H0.5V51.0004H156V0.900391Z" fill="white"/>
</mask>
<g mask="url(#mask0_1654_6637)">
<path d="M87.6 8.70117H81.1V15.3012H87.6V22.0012H94.1V15.4012H100.6V8.80117H94.1V2.20117H87.6V8.70117Z" fill="#141414"/>
<path d="M37.4 0.900391H29.8V7.10039H37.4V32.3004H29.5V38.5004H53.9V32.3004H44.1V7.10039H37.4V0.900391Z" fill="#141414"/>
<path fill-rule="evenodd" clip-rule="evenodd" d="M1.39999 20.9012C0.799994 22.5012 0.5 24.2012 0.5 26.1012C0.5 28.0012 0.799994 29.7012 1.39999 31.3012C1.99999 32.9012 2.79999 34.3012 3.79999 35.4012C4.79999 36.5012 5.99999 37.4012 7.29999 38.1012C8.69999 38.7012 10.1 39.0012 11.7 39.0012C12.3 39.0012 13 38.9012 13.6 38.8012C14.3 38.7012 14.9 38.5012 15.5 38.2012C16.1 37.9012 16.7 37.6012 17.2 37.2012C17.7 36.8012 18.1 36.4012 18.3 35.9012V39.4012C18.3 41.2012 17.8 42.5012 16.8 43.3012C15.8 44.2012 14.5 44.6012 12.7 44.6012C11.7 44.6012 10.8 44.3012 9.89999 43.8012C8.99999 43.3012 8.30001 42.5012 7.70001 41.6012L1.89999 45.0012C2.99999 47.0012 4.39999 48.5012 6.29999 49.5012C8.19999 50.6012 10.3 51.1012 12.7 51.1012C14.5 51.1012 16.2 50.8012 17.7 50.3012C19.2 49.8012 20.5 49.1012 21.6 48.1012C22.7 47.1012 23.5 45.9012 24.1 44.5012C24.7 43.0012 25 41.4012 25 39.5012V13.5012H18.3V16.0012C17.7 15.2012 16.8 14.5012 15.5 14.0012C14.3 13.4012 13 13.2012 11.6 13.2012C10.1 13.2012 8.69999 13.5012 7.29999 14.2012C5.89999 14.8012 4.70001 15.7012 3.70001 16.9012C2.80001 17.9012 1.99999 19.3012 1.39999 20.9012ZM10.4 20.1012C11.1 19.8012 11.9 19.6012 12.7 19.6012C13.6 19.6012 14.4 19.8012 15.1 20.1012C15.8 20.4012 16.4 20.9012 16.9 21.5012C17.4 22.1012 17.7 22.7012 18 23.5012C18.3 24.3012 18.4 25.1012 18.4 25.9012V26.2012C18.4 28.1012 17.9 29.6012 16.9 30.7012C16 31.9012 14.6 32.4012 12.9 32.4012C12 32.4012 11.1 32.2012 10.4 31.9012C9.69999 31.5012 9.20001 31.1012 8.70001 30.5012C8.20001 29.9012 7.90001 29.2012 7.70001 28.5012C7.50001 27.7012 7.39999 26.9012 7.39999 26.1012C7.39999 25.2012 7.50001 24.4012 7.70001 23.6012C8.00001 22.8012 8.29999 22.1012 8.79999 21.5012C9.19999 20.9012 9.79999 20.4012 10.4 20.1012Z" fill="#141414"/>
<path d="M58.4 32.6008H66.6V19.3008H58.4V13.3008H73.3V32.5008H81.8V38.5008H58.5V32.6008H58.4Z" fill="#141414"/>
<path d="M105 21.1996C104.4 22.7996 104.1 24.3996 104.1 26.0996C104.1 27.7996 104.4 29.4996 104.9 30.9996C105.5 32.4996 106.3 33.8996 107.4 35.0996C108.5 36.2996 109.8 37.1996 111.3 37.8996C112.8 38.5996 114.6 38.8996 116.5 38.8996C118.9 38.8996 121.1 38.3996 123 37.4996C124.9 36.4996 126.6 34.9996 128.2 32.8996L122.9 28.9996C122.2 29.9996 121.2 30.7996 120.2 31.3996C119.1 31.9996 117.9 32.1996 116.6 32.1996C115.8 32.1996 115 31.9996 114.3 31.6996C113.6 31.3996 113 30.8996 112.5 30.3996C112 29.7996 111.6 29.0996 111.3 28.3996C111 27.5996 110.9 26.7996 110.9 25.9996C110.9 25.0996 111 24.2996 111.2 23.5996C111.5 22.7996 111.8 22.0996 112.3 21.4996C112.8 20.8996 113.3 20.3996 114.1 20.0996C114.8 19.6996 115.6 19.5996 116.5 19.5996C117.5 19.5996 118.6 19.8996 119.6 20.5996C120.6 21.2996 121.4 22.2996 121.8 23.5996L128.2 21.3996C127.6 19.9996 126.9 18.6996 126.1 17.6996C125.3 16.5996 124.3 15.7996 123.3 15.0996C122.3 14.3996 121.2 13.8996 120 13.5996C118.8 13.2996 117.7 13.0996 116.5 13.0996C114.6 13.0996 112.9 13.4996 111.4 14.1996C109.9 14.8996 108.6 15.7996 107.5 16.9996C106.4 18.2996 105.6 19.5996 105 21.1996Z" fill="#141414"/>
<path d="M140.2 0.900391V15.8004C141 15.0004 141.9 14.3004 143 13.9004C144.1 13.4004 145.3 13.2004 146.5 13.2004C149.5 13.2004 151.8 14.2004 153.5 16.2004C155.2 18.2004 156.1 20.9004 156.1 24.3004V38.7004H149.4V24.8004C149.4 23.1004 149 21.9004 148.3 21.0004C147.6 20.1004 146.5 19.7004 145.1 19.7004C144.2 19.7004 143.3 19.9004 142.4 20.4004C141.5 20.9004 140.8 21.6004 140.2 22.4004V38.5004H133.5V0.900391H140.2Z" fill="#141414"/>
<path d="M73.2 2.09961H66.5V8.99961H73.2V2.09961Z" fill="#141414"/>
</g>
</svg>
