<svg width="388" height="94" viewBox="0 0 388 94" fill="none" xmlns="http://www.w3.org/2000/svg">
<path d="M362.437 3.40118C391.1 20.6019 395.992 60.9433 372.884 84.8824C370.55 87.2874 367.993 89.4656 365.248 91.3878C364.574 91.8413 363.143 92.7738 362.441 93.1922L361.205 91.2473C375.343 81.8102 384.141 65.2515 384.023 48.2967C384.141 31.3419 375.343 14.7831 361.205 5.34607L362.437 3.40118Z" fill="#141414"/>
<path d="M25.0587 93.1922C-3.60053 75.9915 -8.4931 35.6501 14.6157 11.7109C16.9489 9.30518 19.5057 7.12692 22.2516 5.20557C22.9223 4.75208 24.3562 3.81954 25.0587 3.40118L26.2947 5.34607C12.1566 14.7831 3.35831 31.3419 3.47648 48.2967C3.35831 65.2515 12.1566 81.8294 26.2947 91.2473L25.0587 93.1922Z" fill="#141414"/>
<path fill-rule="evenodd" clip-rule="evenodd" d="M76.7325 56.9004C76.7325 51.1578 77.6046 49.678 80.9986 49.4167V46.2873H57.2899V49.4167C58.3599 49.462 59.3534 49.4849 60.2724 49.5062H60.2725C66.4507 49.649 69.2554 49.7138 69.2554 55.9498L69.2814 67.3828C68.876 68.8252 68.2538 70.1976 67.4358 71.4529C65.649 74.0662 62.6895 75.2813 58.6912 75.2813C49.2182 75.2813 43.6129 65.2791 43.6129 48.0545C43.6129 30.8299 48.7772 20.5827 59.1257 20.5827C67.1288 20.5827 71.947 25.868 73.1719 37.0005H76.739V18.1132H73.3451C72.9107 20.2888 72.5611 20.8963 71.7771 20.8963C71.364 20.8963 70.7318 20.5519 69.8435 20.0681C67.7463 18.9256 64.222 17.0059 58.786 17.0059C44.2628 17.0059 34.6919 30.0296 34.6919 48.3812C34.6919 66.9059 43.8383 78.9072 58.8645 78.9072H58.8938C67.756 78.9072 70.5848 72.9947 71.1858 71.1099L73.3125 78.1265H76.7063L76.7325 56.9004ZM306.672 70.2345C308.874 73.8473 310.106 74.9057 311.693 75.3467V78.0743H302.089L284.649 47.5972H278.923V67.7683C278.923 73.8473 280.158 75.0788 285.267 75.3467V78.0743H265.533V75.3467C270.73 75.167 271.613 74.3667 271.613 68.2092V28.0305C271.613 21.8665 270.73 21.0727 265.533 20.8964V18.1655H286.766C298.042 18.1655 304.033 23.3626 304.033 32.1725C304.033 39.4831 299.803 44.7684 292.316 46.7055L306.672 70.2345ZM278.923 44.4287H284.12C291.96 44.4287 295.925 40.0253 295.925 32.4469C295.925 25.0482 292.577 21.3406 285.799 21.3406H278.939L278.923 44.4287ZM353.629 18.172H339.273L339.286 20.9094C343.513 21.2622 344.747 21.9678 344.747 24.0812C344.747 25.2245 344.395 26.6357 343.336 28.7492L332.851 49.714L322.28 28.3082C321.137 25.9301 320.784 24.7966 320.784 23.8166C320.784 21.8894 322.195 21.2622 326.337 20.9094V18.1753H308.276V20.9061C310.04 21.3471 311.007 22.314 313.212 26.6324L327.569 54.555V67.5069C327.569 74.1119 326.073 75.0788 320.964 75.3467V78.0742H341.399V75.3467C336.277 75.0821 334.866 74.1152 334.866 67.5069V54.2937L348.785 26.6357C350.899 22.3173 351.957 21.3504 353.629 20.9094V18.172ZM134.394 78.0743V75.3434C139.591 75.167 140.473 74.3634 140.473 68.2092V28.0305C140.473 21.8665 139.591 21.0727 134.394 20.8964V18.1655H154.32V20.9094C148.594 21.0858 147.787 22.5819 147.787 29.0138V67.3305C147.787 73.145 148.767 74.909 154.13 74.909H160.471C167.004 74.909 168.752 72.5276 172.012 57.1127H175.624L173.338 78.0775L134.394 78.0743ZM178.607 75.3434V78.0743L217.534 78.0775L219.821 57.1127H216.208C212.948 72.5276 211.187 74.909 204.671 74.909H198.327C192.963 74.909 191.983 73.145 191.983 67.3305V29.0138C191.983 22.5819 192.79 21.0858 198.517 20.9094V18.1655H178.607V20.8964C183.804 21.0727 184.686 21.8665 184.686 28.0305V68.2092C184.686 74.3634 183.804 75.167 178.607 75.3434ZM124.261 65.8279L108.664 18.1688H94.3136V20.9094C100.193 20.9094 101.307 25.2997 100.393 28.0436L87.7902 65.9357C85.324 73.5109 84.2688 75.007 81.4498 75.3598V78.0743H97.8349V75.3434C92.9024 75.167 90.9751 74.1119 90.9751 71.2047C90.9751 70.0581 91.3279 68.3857 91.9551 66.3571L94.6859 58.1679H114.155L116.709 66.0076C117.5 68.2942 117.853 69.9699 117.853 71.2047C117.853 74.1119 115.915 75.167 111.336 75.3434V78.0743H130.889V75.3434C127.871 74.9874 126.728 73.3149 124.261 65.8279ZM95.8064 54.4636L104.352 28.4781L112.897 54.4636H95.8064ZM259.631 78.071L260.611 60.1898L257.001 60.1931C255.678 71.809 253.829 74.8926 246.78 74.8926H241.145C235.86 74.8926 234.713 73.6579 234.713 68.1962V49.0802H241.848C248.279 49.0802 249.161 50.1386 249.687 58.1548H253.124V36.8372H249.687C249.161 44.8533 248.279 45.9084 241.848 45.9084H234.713V21.3341H244.667C253.035 21.3341 254.799 23.5357 256.031 33.3125H259.644L258.938 18.1622H221.324V20.8931C226.521 21.0695 227.403 21.8633 227.403 28.0273V68.206C227.403 74.3602 226.521 75.1637 221.324 75.3401V78.071H259.631Z" fill="#141414"/>
</svg>
