<svg width="110" height="26" viewBox="0 0 110 26" fill="none" xmlns="http://www.w3.org/2000/svg">
<path d="M19.9119 15.4642C19.9119 13.8523 20.1569 13.4367 21.1091 13.3633V12.4844H14.4513V13.3606C16.7724 13.4578 17.811 13.1826 17.811 15.1954L17.8183 18.4018C17.7051 18.807 17.5306 19.1925 17.3009 19.545C16.7991 20.2789 15.9679 20.6202 14.8449 20.6202C12.1844 20.6202 10.6101 17.8119 10.6101 12.9743C10.6101 8.13671 12.0596 5.26147 14.9669 5.26147C17.2137 5.26147 18.5669 6.74587 18.9119 9.87248H19.9137V4.57156H18.9614C18.8385 5.18257 18.7413 5.35321 18.5211 5.35321C18.1302 5.35321 17.0458 4.26056 14.8715 4.26056C10.7926 4.26056 8.10547 7.91836 8.10547 13.0725C8.10547 18.2752 10.6743 21.6459 14.8945 21.6459H14.9027C17.3917 21.6459 18.1853 19.9844 18.355 19.456L18.9523 21.4266H19.9046L19.9119 15.4642Z" fill="#141414"/>
<path d="M87.2432 19.2092C87.8615 20.2239 88.2083 20.5202 88.6533 20.644V21.411H85.9569L81.0588 12.8514H79.4505V18.5165C79.4505 20.2239 79.7964 20.5697 81.2312 20.644V21.411H75.6899V20.644C77.1496 20.5945 77.3964 20.3688 77.3964 18.6404V7.35597C77.3964 5.62386 77.1496 5.40091 75.6899 5.35229V4.58533H81.6532C84.8193 4.58533 86.5019 6.04495 86.5019 8.51834C86.5019 10.5725 85.3147 12.0569 83.212 12.6009L87.2432 19.2092ZM79.4505 11.9615H80.9101C83.112 11.9615 84.2248 10.7239 84.2248 8.59634C84.2248 6.51835 83.2854 5.47707 81.3808 5.47707H79.4542L79.4505 11.9615Z" fill="#141414"/>
<path d="M96.9495 4.58807H100.986V5.35506C100.516 5.47799 100.219 5.75047 99.6256 6.96332L95.7165 14.7312V18.4422C95.7165 20.2982 96.1128 20.5697 97.5513 20.644V21.411H91.8036V20.644C93.2385 20.5697 93.6596 20.2982 93.6596 18.4422V14.8055L89.6229 6.96332C89.0045 5.75047 88.732 5.47799 88.2375 5.35506V4.58807H93.3119V5.35506C92.1495 5.45322 91.7522 5.63028 91.7522 6.17156C91.7522 6.44679 91.8513 6.76514 92.1733 7.43303L95.1467 13.445L98.0908 7.55689C98.3871 6.96331 98.4862 6.56698 98.4862 6.24496C98.4862 5.65138 98.1403 5.45322 96.9522 5.35506L96.9495 4.58807Z" fill="#141414"/>
<path d="M37.2073 21.411V20.644C38.6669 20.5945 38.9137 20.3688 38.9137 18.6404V7.35597C38.9137 5.62386 38.6669 5.40183 37.2073 5.35229V4.58533H42.7981V5.35229C41.1898 5.40183 40.9632 5.82202 40.9632 7.62844V18.3899C40.9632 20.0229 41.2385 20.5174 42.744 20.5174H44.5256C46.3559 20.5174 46.8513 19.8495 47.7669 15.5202H48.7761L48.1339 21.4083L37.2073 21.411Z" fill="#141414"/>
<path d="M50.1753 21.411V20.644C51.6349 20.5945 51.8826 20.3688 51.8826 18.6404V7.35597C51.8826 5.62386 51.6349 5.40183 50.1753 5.35229V4.58533H55.767V5.35229C54.1588 5.40183 53.9322 5.82202 53.9322 7.62844V18.3899C53.9322 20.0229 54.2074 20.5174 55.7138 20.5174H57.4946C59.3294 20.5174 59.8202 19.8495 60.7358 15.5202H61.7524L61.1102 21.4083L50.1753 21.411Z" fill="#141414"/>
<path d="M33.7192 17.9725L29.3384 4.58716H25.3082V5.35412C26.9595 5.35412 27.2724 6.58715 27.0155 7.3578L23.476 18C22.7834 20.1275 22.4871 20.5477 21.6953 20.6468V21.4138H26.2971V20.6468C24.9118 20.5972 24.3705 20.3009 24.3705 19.4844C24.3705 19.1624 24.4696 18.6926 24.6458 18.1229L25.4127 15.8229H30.8806L31.5981 18.0248C31.8201 18.667 31.9192 19.1376 31.9192 19.4844C31.9192 20.3009 31.3751 20.5972 30.0843 20.6468V21.4138H35.5742V20.6468C34.7329 20.5449 34.4127 20.0752 33.7192 17.9725ZM25.7274 14.7807L28.1274 7.48255L30.5274 14.7807H25.7274Z" fill="#141414"/>
<path d="M73.7569 16.3881L73.4816 21.4101H62.7229V20.6431C64.1825 20.5936 64.4293 20.3679 64.4293 18.6395V7.35505C64.4293 5.62294 64.1825 5.40091 62.7229 5.35137V4.58441H73.2871L73.4844 8.83945H72.4706C72.1238 6.09358 71.6293 5.47432 69.2789 5.47432H66.4835V12.3771H68.4871C70.2935 12.3771 70.5403 12.0807 70.689 9.82936H71.6541V15.8165H70.689C70.5403 13.5651 70.2935 13.2679 68.4871 13.2679H66.4835V18.6367C66.4835 20.1706 66.8046 20.5165 68.289 20.5165H69.8724C71.8513 20.5165 72.3715 19.6505 72.7422 16.3881H73.7569Z" fill="#141414"/>
<path d="M7.31009 25.9982C-2.43853 20.2477 -2.43486 5.74771 7.31009 0L7.7945 0.76145C5.80645 2.1377 4.17996 3.97348 3.05321 6.11284C-0.446789 12.6862 1.64037 21.0422 7.7945 25.2385L7.31009 26V25.9982Z" fill="#141414"/>
<path d="M101.775 0.000915527C111.524 5.75046 111.519 20.2505 101.775 25.9982L101.291 25.2367C103.278 23.8607 104.905 22.0256 106.032 19.8872C109.531 13.3147 107.445 4.9578 101.291 0.76147L101.775 0.000915527Z" fill="#141414"/>
</svg>
