<svg width="293" height="54" viewBox="0 0 293 54" fill="none" xmlns="http://www.w3.org/2000/svg">
<mask id="mask0_1681_4024" style="mask-type:luminance" maskUnits="userSpaceOnUse" x="70" y="13" width="223" height="28">
<path d="M292.4 13.8008H70.7V40.1008H292.4V13.8008Z" fill="white"/>
</mask>
<g mask="url(#mask0_1681_4024)">
<path d="M292.4 15.0008C289.4 15.0008 289.1 15.4008 289.1 17.4008V40.1008H288.1L275 18.7008V36.6008C275 38.5008 275.3 39.0008 278.4 39.0008V39.7008H270.7V39.0008C273.7 39.0008 274 38.6008 274 36.6008V17.0008V16.9008C273 15.2008 272.2 15.0008 270.7 15.0008V14.3008H274.7L288.1 36.3008V17.4008C288.1 15.5008 287.8 15.0008 284.8 15.0008V14.3008H292.5L292.4 15.0008Z" fill="#141414"/>
<path d="M248.6 27.0008C248.6 19.7008 252.1 13.8008 257.8 13.8008C263.4 13.8008 266.9 19.7008 266.9 27.0008C266.9 34.3008 263.4 40.2008 257.8 40.2008C252.2 40.1008 248.6 34.3008 248.6 27.0008ZM265 28.7008C265 22.1008 262.2 14.9008 257.2 14.9008C253.1 14.9008 250.6 19.7008 250.6 25.1008C250.6 31.7008 253.3 39.0008 258.4 39.0008C262.5 39.0008 265 34.2008 265 28.7008Z" fill="#141414"/>
<path d="M239.1 17.4008C239.1 15.5008 238.8 15.0008 235.8 15.0008V14.3008H244.3V15.0008C241.3 15.0008 241 15.4008 241 17.4008V36.6008C241 38.5008 241.3 39.0008 244.3 39.0008V39.7008H235.8V39.0008C238.8 39.0008 239.1 38.6008 239.1 36.6008V17.4008Z" fill="#141414"/>
<path d="M216.6 15.4004C214.3 15.4004 213.8 15.9004 213.3 20.4004L212.5 20.3004L213 15.0004L213.1 14.4004H229.1L229.2 15.0004L229.7 20.4004L228.9 20.5004C228.5 16.0004 227.9 15.5004 225.6 15.5004H223C222.4 15.5004 222 15.8004 222 16.5004V36.7004C222 38.6004 222.3 39.1004 225.3 39.1004V39.8004H216.8V39.0004C219.8 39.0004 220.1 38.6004 220.1 36.6004V16.4004C220.1 15.8004 219.8 15.4004 219.1 15.4004H216.6Z" fill="#141414"/>
<path d="M201.6 17.4008C201.6 15.5008 201.3 15.0008 198.3 15.0008V14.3008H206.8V15.0008C203.8 15.0008 203.5 15.4008 203.5 17.4008V36.6008C203.5 38.5008 203.8 39.0008 206.8 39.0008V39.7008H198.3V39.0008C201.3 39.0008 201.6 38.6008 201.6 36.6008V17.4008Z" fill="#141414"/>
<path d="M176.9 39.6008V39.0008C179.9 39.0008 180.2 38.6008 180.2 36.6008V17.4008C180.2 15.5008 179.9 15.0008 176.9 15.0008V14.3008H185.1C189.3 14.3008 192.4 16.3008 192.4 20.6008C192.4 24.1008 190.2 26.2008 187.2 26.6008V26.7008C190.9 27.0008 193.6 29.5008 193.6 32.9008C193.6 38.0008 189.4 39.7008 184.8 39.7008H176.9V39.6008ZM182.1 26.0008C183 26.1008 184 26.1008 184.9 26.1008C187.6 26.1008 190.4 24.5008 190.4 20.6008C190.4 16.7008 187.6 15.4008 184.9 15.4008C184.2 15.4008 183.4 15.4008 182.8 15.6008C182.3 15.7008 182.1 16.0008 182.1 16.5008V26.0008ZM182.1 37.5008C182.1 38.3008 183 38.5008 184.7 38.5008C188 38.5008 191.6 37.4008 191.6 32.8008C191.6 28.2008 187.4 27.1008 185 27.1008C184 27.1008 183.1 27.1008 182.2 27.2008V37.5008H182.1Z" fill="#141414"/>
<path d="M165.7 17.4008C165.7 15.5008 165.4 15.0008 162.4 15.0008V14.3008H170.9V15.0008C167.9 15.0008 167.6 15.4008 167.6 17.4008V36.6008C167.6 38.5008 167.9 39.0008 170.9 39.0008V39.7008H162.4V39.0008C165.4 39.0008 165.7 38.6008 165.7 36.6008V17.4008Z" fill="#141414"/>
<path d="M156.4 15.0008C153.4 15.0008 153.1 15.4008 153.1 17.4008V36.6008C153.1 38.5008 153.4 39.0008 156.4 39.0008V39.7008H147.9V39.0008C150.9 39.0008 151.2 38.6008 151.2 36.6008V26.7008H140.3V36.6008C140.3 38.5008 140.6 39.0008 143.6 39.0008V39.7008H135V39.0008C138 39.0008 138.3 38.6008 138.3 36.6008V17.4008C138.3 15.5008 138 15.0008 135 15.0008V14.3008H143.5V15.0008C140.5 15.0008 140.2 15.4008 140.2 17.4008V25.7008H151.1V17.4008C151.1 15.5008 150.8 15.0008 147.8 15.0008V14.3008H156.3V15.0008H156.4Z" fill="#141414"/>
<path d="M112.4 27.0008C112.4 19.7008 115.9 13.8008 121.6 13.8008C127.2 13.8008 130.7 19.7008 130.7 27.0008C130.7 34.3008 127.2 40.2008 121.6 40.2008C116 40.2008 112.4 34.3008 112.4 27.0008ZM128.7 28.7008C128.7 22.1008 125.9 14.9008 120.9 14.9008C116.8 14.9008 114.3 19.7008 114.3 25.1008C114.3 31.7008 117 39.0008 122.1 39.0008C126.3 39.0008 128.7 34.2008 128.7 28.7008Z" fill="#141414"/>
<path d="M105.1 36.2008C106.1 38.1008 106.6 38.9008 109 38.9008V39.6008H108.2C104.8 39.6008 104.4 39.1008 103 36.5008L98.3999 27.6008H97.7999C96.9999 27.6008 96.2999 27.5008 95.6999 27.4008V36.6008C95.6999 38.5008 95.9999 39.0008 98.9999 39.0008V39.7008H90.4999V39.0008C93.4999 39.0008 93.7999 38.6008 93.7999 36.6008V17.4008C93.7999 15.5008 93.4999 15.0008 90.4999 15.0008V14.3008H98.8999C103.9 14.3008 106.3 16.7008 106.3 20.6008C106.3 24.5008 103.7 26.8008 100.1 27.4008C100.7 27.7008 101.1 28.4008 101.8 29.8008L105.1 36.2008ZM95.7999 26.3008C96.4999 26.5008 97.2999 26.5008 98.0999 26.5008C101.8 26.5008 104.3 24.8008 104.3 20.8008C104.3 17.3008 102.3 15.3008 98.6999 15.3008C97.8999 15.3008 97.1999 15.4008 96.4999 15.6008C96.0999 15.8008 95.8999 16.1008 95.8999 16.5008V26.3008H95.7999Z" fill="#141414"/>
<path d="M70.6999 39.0008C73.6999 39.0008 73.9999 38.6008 73.9999 36.6008V17.4008C73.9999 15.5008 73.6999 15.0008 70.6999 15.0008V14.3008H78.6999C83.3999 14.3008 86.7999 16.5008 86.7999 21.3008C86.7999 25.8008 83.6999 28.4008 79.1999 28.4008C77.8999 28.4008 76.8999 28.2008 75.7999 27.8008V36.5008C75.7999 38.4008 76.0999 38.9008 79.1999 38.9008V39.6008H70.5999V39.0008H70.6999ZM84.8999 21.4008C84.8999 17.3008 82.1999 15.4008 78.7999 15.4008C77.8999 15.4008 77.2999 15.5008 76.5999 15.7008C76.1999 15.9008 75.9999 16.1008 75.9999 16.6008V26.8008C76.8999 27.1008 77.8999 27.4008 79.1999 27.4008C82.7999 27.4008 84.8999 25.0008 84.8999 21.4008Z" fill="#141414"/>
</g>
<mask id="mask1_1681_4024" style="mask-type:luminance" maskUnits="userSpaceOnUse" x="0" y="0" width="54" height="54">
<path d="M53.1 0.699219H0.5V53.2992H53.1V0.699219Z" fill="white"/>
</mask>
<g mask="url(#mask1_1681_4024)">
<path d="M0.5 0.699219H15.9L0.5 15.9992V0.699219Z" fill="#141414"/>
<path d="M0.5 37.8984L15.9 53.2984H0.5V37.8984Z" fill="#141414"/>
<path d="M37.8 0.699219H53.2001V15.9992L37.8 0.699219Z" fill="#141414"/>
<path d="M37.8 53.2984L53.2001 37.8984V53.2984H37.8Z" fill="#141414"/>
<path d="M26.8 41.1992L37.8 53.2992H15.9L26.8 41.1992Z" fill="#141414"/>
<path d="M15.9 0.699219H37.8L26.8 12.7992L15.9 0.699219Z" fill="#141414"/>
<path d="M41.1 27L53.2 16V37.9L41.1 27Z" fill="#141414"/>
<path d="M0.5 37.9V16L12.6 27L0.5 37.9Z" fill="#141414"/>
</g>
</svg>
