<svg width="476" height="56" viewBox="0 0 476 56" fill="none" xmlns="http://www.w3.org/2000/svg">
<g clip-path="url(#clip0_620_3395)">
<path d="M471.571 2.48621C465.111 2.48621 464.572 3.43014 464.572 7.53338V55.8567H462.349L434.567 10.4229V48.4498C434.567 52.5532 435.174 53.4973 441.7 53.4973V54.9131H425.288V53.4973C431.679 53.4973 432.286 52.5532 432.286 48.4498V6.72427L432.219 6.5894C429.995 3.0256 428.455 2.48621 425.288 2.48621V1.07031H433.759L462.146 47.7853H462.214V7.53338C462.214 3.43014 461.675 2.48621 455.216 2.48621V1.07031H471.562V2.48621H471.571Z" fill="#111111"/>
<path d="M378.467 27.9981C378.467 12.5196 386.004 -0.00195312 397.979 -0.00195312C409.954 -0.00195312 417.414 12.587 417.414 27.9981C417.414 43.4093 410.012 55.9983 398.037 55.9983C386.062 55.9983 378.467 43.4767 378.467 27.9981ZM413.179 31.7643C413.179 17.7594 407.259 2.34824 396.699 2.34824C388.026 2.34824 382.77 12.5774 382.77 24.155C382.77 38.2851 388.555 53.6383 399.25 53.6383C407.99 53.6383 413.179 43.4093 413.179 31.7643Z" fill="#111111"/>
<path d="M358.156 7.53338C358.156 3.43014 357.55 2.48621 351.158 2.48621V1.07031H369.323V2.48621C362.864 2.48621 362.257 3.43014 362.257 7.53338V48.4596C362.257 52.5625 362.864 53.5066 369.323 53.5066V54.9225H351.158V53.5066C357.55 53.5066 358.156 52.5625 358.156 48.4596V7.53338Z" fill="#111111"/>
<path d="M310.256 3.43014C305.347 3.43014 304.201 4.4415 303.325 13.9964L301.64 13.8615L302.651 2.41879L302.786 1.07031H336.824L336.959 2.41879L337.969 13.8615L336.285 13.9964C335.409 4.4415 334.196 3.43014 329.287 3.43014H323.973C322.625 3.43014 321.884 4.1718 321.884 5.52027V48.4596C321.884 52.5625 322.423 53.5066 328.882 53.5066V54.9225H310.718V53.5066C317.177 53.5066 317.716 52.5625 317.716 48.4596V5.52027C317.716 4.1718 316.975 3.43014 315.627 3.43014H310.246H310.256Z" fill="#111111"/>
<path d="M278.369 7.53338C278.369 3.43014 277.763 2.48621 271.371 2.48621V1.07031H289.535V2.48621C283.076 2.48621 282.47 3.43014 282.47 7.53338V48.4596C282.47 52.5625 283.076 53.5066 289.535 53.5066V54.9225H271.371V53.5066C277.763 53.5066 278.369 52.5625 278.369 48.4596V7.53338Z" fill="#111111"/>
<path d="M225.899 54.9225V53.5066C232.291 53.5066 232.897 52.5625 232.897 48.4596V7.53338C232.897 3.43014 232.291 2.48621 225.899 2.48621V1.07031H243.39C252.332 1.07031 258.859 5.3084 258.859 14.401C258.859 21.8079 254.152 26.3157 247.895 27.1248V27.327C255.769 27.8664 261.487 33.1832 261.487 40.5228C261.487 51.359 252.544 54.9225 242.716 54.9225H225.899ZM236.998 25.9111C238.952 26.1808 240.964 26.1808 242.985 26.1808C248.703 26.1808 254.623 22.6844 254.623 14.4684C254.623 6.25233 248.703 3.36272 242.985 3.36272C241.436 3.36272 239.895 3.43014 238.48 3.69984C237.47 3.90211 236.998 4.50892 236.998 5.52027V25.9111ZM236.998 50.4821C236.998 52.2354 238.885 52.64 242.446 52.64C249.377 52.64 257.107 50.2801 257.107 40.5902C257.107 30.9005 248.097 28.4733 242.985 28.4733C240.897 28.4733 238.952 28.4733 236.998 28.7429V50.4821Z" fill="#111111"/>
<path d="M202.017 7.53338C202.017 3.43014 201.411 2.48621 195.019 2.48621V1.07031H213.183V2.48621C206.724 2.48621 206.118 3.43014 206.118 7.53338V48.4596C206.118 52.5625 206.724 53.5066 213.183 53.5066V54.9225H195.019V53.5066C201.411 53.5066 202.017 52.5625 202.017 48.4596V7.53338Z" fill="#111111"/>
<path d="M182.233 2.48621C175.841 2.48621 175.235 3.43014 175.235 7.53338V48.4596C175.235 52.5625 175.841 53.5066 182.233 53.5066V54.9225H164.203V53.5066C170.528 53.5066 171.134 52.5625 171.134 48.4596V27.4619H147.993V48.4596C147.993 52.5625 148.599 53.5066 154.924 53.5066V54.9225H136.894V53.5066C143.286 53.5066 143.892 52.5625 143.892 48.4596V7.53338C143.892 3.43014 143.286 2.48621 136.894 2.48621V1.07031H154.924V2.48621C148.599 2.48621 147.993 3.43014 147.993 7.53338V25.102H171.134V7.53338C171.134 3.43014 170.528 2.48621 164.203 2.48621V1.07031H182.233V2.48621Z" fill="#111111"/>
<path d="M88.7295 27.9991C88.7295 12.5206 96.2668 -0.000976562 108.242 -0.000976562C120.217 -0.000976562 127.686 12.588 127.686 27.9991C127.686 43.4102 120.284 55.9992 108.309 55.9992C96.3339 55.9992 88.7295 43.4777 88.7295 27.9991ZM123.441 31.7652C123.441 17.7604 117.521 2.34922 106.962 2.34922C98.2881 2.34922 93.0324 12.5783 93.0324 24.156C93.0324 38.286 98.8174 53.6393 109.512 53.6393C118.253 53.6393 123.441 43.4102 123.441 31.7652Z" fill="#111111"/>
<path d="M73.3154 47.6504C75.5392 51.7538 76.4729 53.4394 81.6521 53.4394V54.9225H79.8999C72.6998 54.9225 71.7563 53.9112 68.9356 48.257L59.252 29.2727H58.0389C56.3543 29.2727 54.8815 29.1378 53.4665 28.9356V48.4596C53.4665 52.5625 54.0728 53.5066 60.4646 53.5066V54.9225H42.3676V53.5066C48.7592 53.5066 49.366 52.5625 49.366 48.4596V7.53338C49.366 3.43014 48.7592 2.48621 42.3676 2.48621V1.07031H60.1279C70.6878 1.07031 75.7994 6.18489 75.7994 14.5358C75.7994 22.8867 70.3506 27.6641 62.5442 28.9356C63.7568 29.6772 64.7003 30.9583 66.1732 33.9827L73.3061 47.6504H73.3154ZM53.4762 26.5853C54.9584 26.9225 56.5661 27.0573 58.3183 27.0573C66.1251 27.0573 71.4387 23.4261 71.4387 15.0078C71.4387 7.46595 67.1358 3.36272 59.5309 3.36272C57.9139 3.36272 56.3063 3.56499 54.7565 4.03696C53.8806 4.37408 53.4762 5.04832 53.4762 5.92482V26.5853Z" fill="#111111"/>
<path d="M0.129028 53.5066C6.52077 53.5066 7.12726 52.5625 7.12726 48.4596V7.53338C7.12726 3.43014 6.52077 2.48621 0.129028 2.48621V1.07031H17.2155C27.1689 1.07031 34.5041 5.78034 34.5041 15.942C34.5041 25.4969 27.8427 31.1509 18.4283 31.1509C15.6656 31.1509 13.4516 30.679 11.228 29.9373V48.4498C11.228 52.5532 11.8344 53.4973 18.361 53.4973V54.9131H0.129028V53.4973V53.5066ZM30.2012 16.0865C30.2012 7.34074 24.4158 3.36272 17.1481 3.36272C15.2613 3.36272 13.9233 3.63242 12.5083 4.10438C11.6323 4.4415 11.228 5.04832 11.228 5.92482V27.5967C13.2495 28.271 15.2613 28.8103 17.9567 28.8103C25.8309 28.8103 30.2012 23.7632 30.2012 16.0865Z" fill="#111111"/>
</g>
<defs>
<clipPath id="clip0_620_3395">
<rect width="475.715" height="56.0002" fill="white" transform="translate(0.128906)"/>
</clipPath>
</defs>
</svg>
