<svg width="292" height="390" viewBox="0 0 292 390" fill="none" xmlns="http://www.w3.org/2000/svg">
<path d="M265.112 250.862C265.112 214.752 270.592 205.447 291.915 203.804V184.126H138.857V203.804C190.779 206.001 218.137 199.839 218.137 244.885L218.3 316.777C215.753 325.847 211.844 334.476 206.705 342.37C195.479 358.803 176.886 366.444 151.766 366.444C92.2501 366.444 57.0339 303.548 57.0339 195.238C57.0339 86.9276 89.4797 22.4919 154.495 22.4919C204.776 22.4919 235.047 55.7266 242.743 125.729H265.153V6.96328H243.831C241.102 20.6433 238.905 24.4638 233.98 24.4638C225.258 24.4638 200.979 0 152.361 0C61.1173 0 0.98642 81.8952 0.98642 197.292C0.98642 313.778 58.4499 389.244 152.854 389.244H153.038C208.716 389.244 226.489 352.065 230.265 340.213L243.626 384.334H264.948L265.112 250.862Z" fill="#141414"/>
</svg>
