<svg width="62" height="62" viewBox="0 0 62 62" fill="none" xmlns="http://www.w3.org/2000/svg">
<path fill-rule="evenodd" clip-rule="evenodd" d="M31.5 1C31.5 8.82389 34.608 16.3273 40.1404 21.8596C45.6727 27.392 53.1761 30.5 61 30.5V31.5C53.1761 31.5 45.6727 34.608 40.1404 40.1404C34.608 45.6727 31.5 53.1761 31.5 61H30.5C30.5 53.1761 27.392 45.6727 21.8596 40.1404C16.3273 34.608 8.82389 31.5 1 31.5V30.5C8.82389 30.5 16.3273 27.392 21.8596 21.8596C27.392 16.3273 30.5 8.82389 30.5 1H31.5ZM31 6.50071C32.1084 12.5453 35.0271 18.1607 39.4332 22.5668C43.8393 26.9729 49.4547 29.8916 55.4993 31C49.4547 32.1084 43.8393 35.0271 39.4332 39.4332C35.0271 43.8393 32.1084 49.4547 31 55.4993C29.8916 49.4547 26.9729 43.8393 22.5668 39.4332C18.1607 35.0271 12.5453 32.1084 6.50071 31C12.5453 29.8916 18.1607 26.9729 22.5668 22.5668C26.9729 18.1607 29.8916 12.5453 31 6.50071Z" fill="#F0BB00"/>
<path d="M40.1404 21.8596L40.8475 21.1525L40.1404 21.8596ZM31.5 1H32.5V0H31.5V1ZM61 30.5H62V29.5H61V30.5ZM61 31.5V32.5H62V31.5H61ZM31.5 61V62H32.5V61H31.5ZM30.5 61H29.5V62H30.5V61ZM21.8596 40.1404L21.1525 40.8475L21.8596 40.1404ZM1 31.5H0V32.5H1V31.5ZM1 30.5V29.5H0V30.5H1ZM21.8596 21.8596L21.1525 21.1525L21.8596 21.8596ZM30.5 1V0H29.5V1H30.5ZM31 6.50071L31.9836 6.32035H30.0164L31 6.50071ZM55.4993 31L55.6796 31.9836V30.0164L55.4993 31ZM31 55.4993L30.0164 55.6796H31.9836L31 55.4993ZM6.50071 31L6.32035 30.0164V31.9836L6.50071 31ZM40.8475 21.1525C35.5027 15.8078 32.5 8.55867 32.5 1H30.5C30.5 9.0891 33.7134 16.8469 39.4332 22.5668L40.8475 21.1525ZM61 29.5C53.4413 29.5 46.1922 26.4973 40.8475 21.1525L39.4332 22.5668C45.1531 28.2866 52.9109 31.5 61 31.5V29.5ZM62 31.5V30.5H60V31.5H62ZM40.8475 40.8475C46.1922 35.5027 53.4413 32.5 61 32.5V30.5C52.9109 30.5 45.1531 33.7134 39.4332 39.4332L40.8475 40.8475ZM32.5 61C32.5 53.4413 35.5027 46.1922 40.8475 40.8475L39.4332 39.4332C33.7134 45.1531 30.5 52.9109 30.5 61H32.5ZM30.5 62H31.5V60H30.5V62ZM21.1525 40.8475C26.4973 46.1922 29.5 53.4413 29.5 61H31.5C31.5 52.9109 28.2866 45.1531 22.5668 39.4332L21.1525 40.8475ZM1 32.5C8.55867 32.5 15.8078 35.5027 21.1525 40.8475L22.5668 39.4332C16.8469 33.7134 9.0891 30.5 1 30.5V32.5ZM2 31.5V30.5H0V31.5H2ZM1 31.5C9.0891 31.5 16.8469 28.2866 22.5668 22.5668L21.1525 21.1525C15.8078 26.4973 8.55867 29.5 1 29.5V31.5ZM22.5668 22.5668C28.2866 16.8469 31.5 9.0891 31.5 1H29.5C29.5 8.55867 26.4973 15.8078 21.1525 21.1525L22.5668 22.5668ZM30.5 2H31.5V0H30.5V2ZM30.0164 6.68106C31.1611 12.9238 34.1755 18.7233 38.7261 23.2739L40.1404 21.8596C35.8787 17.598 33.0556 12.1668 31.9836 6.32035L30.0164 6.68106ZM38.7261 23.2739C43.2767 27.8245 49.0762 30.8389 55.3189 31.9836L55.6796 30.0164C49.8332 28.9444 44.402 26.1213 40.1404 21.8596L38.7261 23.2739ZM55.3189 30.0164C49.0762 31.1611 43.2767 34.1755 38.7261 38.7261L40.1404 40.1404C44.402 35.8787 49.8332 33.0556 55.6796 31.9836L55.3189 30.0164ZM38.7261 38.7261C34.1755 43.2767 31.1611 49.0762 30.0164 55.3189L31.9836 55.6796C33.0556 49.8332 35.8787 44.402 40.1404 40.1404L38.7261 38.7261ZM31.9836 55.3189C30.8389 49.0762 27.8245 43.2767 23.2739 38.7261L21.8596 40.1404C26.1213 44.402 28.9444 49.8332 30.0164 55.6796L31.9836 55.3189ZM23.2739 38.7261C18.7233 34.1755 12.9238 31.1611 6.68106 30.0164L6.32035 31.9836C12.1668 33.0556 17.598 35.8787 21.8596 40.1404L23.2739 38.7261ZM21.8596 21.8596C17.598 26.1213 12.1668 28.9444 6.32035 30.0164L6.68106 31.9836C12.9238 30.8389 18.7233 27.8245 23.2739 23.2739L21.8596 21.8596ZM30.0164 6.32035C28.9444 12.1668 26.1213 17.598 21.8596 21.8596L23.2739 23.2739C27.8245 18.7233 30.8389 12.9238 31.9836 6.68106L30.0164 6.32035Z" fill="#F0BB00"/>
</svg>
