<?xml version="1.0" standalone="no"?>
<!DOCTYPE svg PUBLIC "-//W3C//DTD SVG 20010904//EN"
 "http://www.w3.org/TR/2001/REC-SVG-20010904/DTD/svg10.dtd">
<svg version="1.0" xmlns="http://www.w3.org/2000/svg"
 width="700.000000pt" height="700.000000pt" viewBox="0 0 700.000000 700.000000"
 preserveAspectRatio="xMidYMid meet">
<metadata>
Created by potrace 1.14, written by Peter Selinger 2001-2017
</metadata>
<g transform="translate(0.000000,700.000000) scale(0.100000,-0.100000)"
fill="#000000" stroke="none">
<path d="M3300 5439 c-442 -45 -828 -224 -1125 -524 -310 -313 -498 -702 -556
-1150 -14 -115 -14 -423 1 -540 58 -461 250 -832 580 -1123 529 -466 1279
-614 2080 -412 307 77 653 219 715 292 l25 30 0 601 c0 619 4 687 41 774 46
107 109 142 302 168 l47 6 0 50 0 49 -715 0 -715 0 0 -50 c0 -33 4 -50 13 -50
42 -1 231 -32 275 -45 119 -36 159 -83 189 -225 16 -76 18 -145 18 -635 0
-523 -1 -552 -19 -589 -24 -48 -81 -85 -195 -126 -426 -155 -858 -142 -1205
35 -262 133 -487 367 -616 638 -122 255 -170 505 -170 880 0 514 91 896 281
1180 49 73 209 233 297 297 273 198 573 282 900 252 165 -15 291 -50 427 -117
185 -91 316 -211 440 -401 58 -88 143 -248 193 -361 l32 -73 66 0 65 0 -5 68
c-3 37 -13 283 -21 547 -9 264 -18 499 -21 523 l-5 42 -59 0 c-59 0 -60 0 -79
-39 -53 -103 -103 -135 -216 -135 -67 -1 -113 9 -285 56 -113 32 -239 65 -280
73 -196 41 -488 55 -700 34z"/>
</g>
</svg>
