<svg width="500" height="500" viewBox="0 0 500 500" fill="none" xmlns="http://www.w3.org/2000/svg">
<rect width="500" height="500" fill="white"/>
<path d="M253.047 110.664C268.542 110.664 283.776 112.812 298.75 117.109C313.724 121.406 322.318 123.555 324.531 123.555C330.26 123.555 334.297 122.448 336.641 120.234C339.115 118.021 341.198 114.831 342.891 110.664H351.68L354.805 194.844H345.625C337.422 175.443 328.958 160.99 320.234 151.484C304.479 134.818 283.971 126.484 258.711 126.484C233.06 126.484 210.469 136.25 190.938 155.781C171.536 175.182 161.836 207.214 161.836 251.875C161.836 288.724 171.536 317.5 190.938 338.203C210.339 358.906 234.297 369.258 262.812 369.258C267.63 369.258 273.294 368.802 279.805 367.891C286.315 366.979 292.5 365.547 298.359 363.594C307.865 360.469 313.789 357.799 316.133 355.586C318.477 353.242 319.648 349.857 319.648 345.43V281.562C319.648 266.198 317.435 256.628 313.008 252.852C308.711 249.076 299.206 246.732 284.492 245.82V238.398H386.445V245.82C376.549 246.471 369.974 248.099 366.719 250.703C361.25 254.87 358.516 263.464 358.516 276.484V355.195C358.516 359.883 346.992 366.133 323.945 373.945C301.029 381.758 278.958 385.664 257.734 385.664C218.672 385.664 185.729 374.271 158.906 351.484C129.349 326.354 114.57 292.63 114.57 250.312C114.57 213.073 126.354 181.172 149.922 154.609C175.833 125.312 210.208 110.664 253.047 110.664Z" fill="black"/>
</svg>
